<svg width="1734" height="190" xmlns="http://www.w3.org/2000/svg" data-name="Layer 1">

 <g>
  <title>Layer 1</title>
  <path id="svg_1" stroke-width="0px" fill="#622599" d="m99.2915,114.29351c-3.839,0 -7.678,-1.464 -10.606,-4.394l-84.292,-84.293c-5.858,-5.857 -5.858,-15.355 0,-21.213c5.857,-5.857 15.355,-5.859 21.213,0l84.292,84.293c5.858,5.857 5.858,15.355 0,21.213c-2.929,2.929 -6.768,4.394 -10.606,4.394l-0.001,0z" class="cls-1"/>
  <path id="svg_2" stroke-width="0px" fill="#622599" d="m34.6345,190.09251c-3.839,0 -7.678,-1.465 -10.606,-4.394c-5.858,-5.857 -5.858,-15.355 0,-21.213l84.293,-84.293c5.857,-5.857 15.355,-5.857 21.213,0c5.858,5.857 5.858,15.355 0,21.213l-84.293,84.293c-2.929,2.929 -6.768,4.394 -10.606,4.394l-0.001,0z" class="cls-1"/>
  <g id="svg_3">
   <path id="svg_4" stroke-width="0px" fill="#622599" d="m175.4935,114.29351c-3.839,0 -7.678,-1.465 -10.606,-4.394l-84.293,-84.293c-5.858,-5.857 -5.858,-15.355 0,-21.213c5.857,-5.857 15.355,-5.857 21.213,0l84.293,84.293c5.858,5.857 5.858,15.355 0,21.213c-2.929,2.929 -6.768,4.394 -10.606,4.394l-0.001,0z" class="cls-1"/>
   <path id="svg_5" stroke-width="0px" fill="#622599" d="m110.8365,190.09251c-3.839,0 -7.678,-1.465 -10.606,-4.394c-5.858,-5.857 -5.858,-15.355 0,-21.213l84.292,-84.293c5.857,-5.857 15.355,-5.857 21.213,0c5.858,5.857 5.858,15.355 0,21.213l-84.292,84.293c-2.929,2.929 -6.768,4.394 -10.606,4.394l-0.001,0z" class="cls-1"/>
  </g>
  <g id="svg_6">
   <path id="svg_7" stroke-width="0px" fill="#622599" d="m251.6955,114.29351c-3.839,0 -7.678,-1.465 -10.606,-4.394l-84.293,-84.293c-5.858,-5.857 -5.858,-15.355 0,-21.213c5.857,-5.857 15.355,-5.857 21.213,0l84.293,84.293c5.858,5.857 5.858,15.355 0,21.213c-2.929,2.929 -6.768,4.394 -10.606,4.394l-0.001,0z" class="cls-1"/>
   <path id="svg_8" stroke-width="0px" fill="#622599" d="m187.0375,190.09251c-3.839,0 -7.678,-1.465 -10.606,-4.394c-5.858,-5.857 -5.858,-15.355 0,-21.213l84.293,-84.293c5.857,-5.857 15.355,-5.857 21.213,0c5.858,5.857 5.858,15.355 0,21.213l-84.293,84.293c-2.929,2.929 -6.768,4.394 -10.606,4.394l-0.001,0z" class="cls-1"/>
  </g>
  <g id="svg_9">
   <path id="svg_10" stroke-width="0px" fill="#622599" d="m327.8965,114.29351c-3.839,0 -7.678,-1.464 -10.606,-4.394l-84.292,-84.293c-5.858,-5.857 -5.858,-15.355 0,-21.213c5.857,-5.857 15.355,-5.859 21.213,0l84.292,84.293c5.858,5.857 5.858,15.355 0,21.213c-2.929,2.929 -6.768,4.394 -10.606,4.394l-0.001,0z" class="cls-1"/>
   <path id="svg_11" stroke-width="0px" fill="#622599" d="m263.2395,190.09251c-3.839,0 -7.678,-1.465 -10.606,-4.394c-5.858,-5.857 -5.858,-15.355 0,-21.213l84.293,-84.293c5.857,-5.857 15.355,-5.857 21.213,0c5.858,5.857 5.858,15.355 0,21.213l-84.293,84.293c-2.929,2.929 -6.768,4.394 -10.606,4.394l-0.001,0z" class="cls-1"/>
  </g>
  <g id="svg_12">
   <path id="svg_13" stroke-width="0px" fill="#622599" d="m404.0995,114.29351c-3.839,0 -7.678,-1.464 -10.606,-4.394l-84.292,-84.293c-5.858,-5.857 -5.858,-15.355 0,-21.213c5.857,-5.857 15.355,-5.859 21.213,0l84.292,84.293c5.858,5.857 5.858,15.355 0,21.213c-2.929,2.929 -6.768,4.394 -10.606,4.394l-0.001,0z" class="cls-1"/>
   <path id="svg_14" stroke-width="0px" fill="#622599" d="m339.4415,190.09251c-3.839,0 -7.678,-1.465 -10.606,-4.394c-5.858,-5.857 -5.858,-15.355 0,-21.213l84.293,-84.293c5.857,-5.857 15.355,-5.857 21.213,0c5.858,5.857 5.858,15.355 0,21.213l-84.293,84.293c-2.929,2.929 -6.768,4.394 -10.606,4.394l-0.001,0z" class="cls-1"/>
  </g>
  <g id="svg_15">
   <path id="svg_16" stroke-width="0px" fill="#622599" d="m480.3015,114.29351c-3.839,0 -7.678,-1.464 -10.606,-4.394l-84.292,-84.293c-5.858,-5.857 -5.858,-15.355 0,-21.213c5.857,-5.857 15.355,-5.859 21.213,0l84.292,84.293c5.858,5.857 5.858,15.355 0,21.213c-2.929,2.929 -6.768,4.394 -10.606,4.394l-0.001,0z" class="cls-1"/>
   <path id="svg_17" stroke-width="0px" fill="#622599" d="m415.6445,190.09251c-3.839,0 -7.678,-1.465 -10.606,-4.394c-5.858,-5.857 -5.858,-15.355 0,-21.213l84.293,-84.293c5.857,-5.857 15.355,-5.857 21.213,0c5.858,5.857 5.858,15.355 0,21.213l-84.293,84.293c-2.929,2.929 -6.768,4.394 -10.606,4.394l-0.001,0z" class="cls-1"/>
  </g>
  <g id="svg_18">
   <path id="svg_19" stroke-width="0px" fill="#622599" d="m556.5035,114.29351c-3.839,0 -7.678,-1.465 -10.606,-4.394l-84.293,-84.293c-5.858,-5.857 -5.858,-15.355 0,-21.213c5.857,-5.857 15.355,-5.857 21.213,0l84.293,84.293c5.858,5.857 5.858,15.355 0,21.213c-2.929,2.929 -6.768,4.394 -10.606,4.394l-0.001,0z" class="cls-1"/>
   <path id="svg_20" stroke-width="0px" fill="#622599" d="m491.8465,190.09251c-3.839,0 -7.678,-1.465 -10.606,-4.394c-5.858,-5.857 -5.858,-15.355 0,-21.213l84.292,-84.293c5.857,-5.857 15.355,-5.857 21.213,0c5.858,5.857 5.858,15.355 0,21.213l-84.292,84.293c-2.929,2.929 -6.768,4.394 -10.606,4.394l-0.001,0z" class="cls-1"/>
  </g>
  <g id="svg_21">
   <path id="svg_22" stroke-width="0px" fill="#622599" d="m632.7055,114.29351c-3.839,0 -7.678,-1.465 -10.606,-4.394l-84.293,-84.293c-5.858,-5.857 -5.858,-15.355 0,-21.213c5.857,-5.857 15.355,-5.857 21.213,0l84.293,84.293c5.858,5.857 5.858,15.355 0,21.213c-2.929,2.929 -6.768,4.394 -10.606,4.394l-0.001,0z" class="cls-1"/>
   <path id="svg_23" stroke-width="0px" fill="#622599" d="m568.0475,190.09251c-3.839,0 -7.678,-1.465 -10.606,-4.394c-5.858,-5.857 -5.858,-15.355 0,-21.213l84.293,-84.293c5.857,-5.857 15.355,-5.857 21.213,0c5.858,5.857 5.858,15.355 0,21.213l-84.293,84.293c-2.929,2.929 -6.768,4.394 -10.606,4.394l-0.001,0z" class="cls-1"/>
  </g>
  <g id="svg_24">
   <path id="svg_25" stroke-width="0px" fill="#622599" d="m708.9065,114.29351c-3.839,0 -7.678,-1.464 -10.606,-4.394l-84.292,-84.293c-5.858,-5.857 -5.858,-15.355 0,-21.213c5.857,-5.857 15.355,-5.859 21.213,0l84.292,84.293c5.858,5.857 5.858,15.355 0,21.213c-2.929,2.929 -6.768,4.394 -10.606,4.394l-0.001,0z" class="cls-1"/>
   <path id="svg_26" stroke-width="0px" fill="#622599" d="m644.2495,190.09251c-3.839,0 -7.678,-1.465 -10.606,-4.394c-5.858,-5.857 -5.858,-15.355 0,-21.213l84.293,-84.293c5.857,-5.857 15.355,-5.857 21.213,0c5.858,5.857 5.858,15.355 0,21.213l-84.293,84.293c-2.929,2.929 -6.768,4.394 -10.606,4.394l-0.001,0z" class="cls-1"/>
  </g>
  <g id="svg_27">
   <path id="svg_28" stroke-width="0px" fill="#622599" d="m785.1085,114.29351c-3.839,0 -7.678,-1.464 -10.606,-4.394l-84.292,-84.293c-5.858,-5.857 -5.858,-15.355 0,-21.213c5.857,-5.857 15.355,-5.859 21.213,0l84.292,84.293c5.858,5.857 5.858,15.355 0,21.213c-2.929,2.929 -6.768,4.394 -10.606,4.394l-0.001,0z" class="cls-1"/>
   <path id="svg_29" stroke-width="0px" fill="#622599" d="m720.4515,190.09251c-3.839,0 -7.678,-1.465 -10.606,-4.394c-5.858,-5.857 -5.858,-15.355 0,-21.213l84.293,-84.293c5.857,-5.857 15.355,-5.857 21.213,0c5.858,5.857 5.858,15.355 0,21.213l-84.293,84.293c-2.929,2.929 -6.768,4.394 -10.606,4.394l-0.001,0z" class="cls-1"/>
  </g>
  <g id="svg_30">
   <path id="svg_31" stroke-width="0px" fill="#622599" d="m861.3115,114.29351c-3.839,0 -7.678,-1.464 -10.606,-4.394l-84.292,-84.293c-5.858,-5.857 -5.858,-15.355 0,-21.213c5.857,-5.857 15.355,-5.859 21.213,0l84.292,84.293c5.858,5.857 5.858,15.355 0,21.213c-2.929,2.929 -6.768,4.394 -10.606,4.394l-0.001,0z" class="cls-1"/>
   <path id="svg_32" stroke-width="0px" fill="#622599" d="m796.6535,190.09251c-3.839,0 -7.678,-1.465 -10.606,-4.394c-5.858,-5.857 -5.858,-15.355 0,-21.213l84.293,-84.293c5.857,-5.857 15.355,-5.857 21.213,0c5.858,5.857 5.858,15.355 0,21.213l-84.293,84.293c-2.929,2.929 -6.768,4.394 -10.606,4.394l-0.001,0z" class="cls-1"/>
  </g>
  <g id="svg_33">
   <path id="svg_34" stroke-width="0px" fill="#622599" d="m937.5135,114.29351c-3.839,0 -7.678,-1.465 -10.606,-4.394l-84.293,-84.293c-5.858,-5.857 -5.858,-15.355 0,-21.213c5.857,-5.857 15.355,-5.857 21.213,0l84.293,84.293c5.858,5.857 5.858,15.355 0,21.213c-2.929,2.929 -6.768,4.394 -10.606,4.394l-0.001,0z" class="cls-1"/>
   <path id="svg_35" stroke-width="0px" fill="#622599" d="m872.8555,190.09251c-3.839,0 -7.678,-1.465 -10.606,-4.394c-5.858,-5.857 -5.858,-15.355 0,-21.213l84.292,-84.293c5.857,-5.857 15.355,-5.857 21.213,0c5.858,5.857 5.858,15.355 0,21.213l-84.292,84.293c-2.929,2.929 -6.768,4.394 -10.606,4.394l-0.001,0z" class="cls-1"/>
  </g>
  <g id="svg_36">
   <path id="svg_37" stroke-width="0px" fill="#622599" d="m1013.7155,114.29351c-3.839,0 -7.678,-1.465 -10.606,-4.394l-84.293,-84.293c-5.858,-5.857 -5.858,-15.355 0,-21.213c5.857,-5.857 15.355,-5.857 21.213,0l84.293,84.293c5.858,5.857 5.858,15.355 0,21.213c-2.929,2.929 -6.768,4.394 -10.606,4.394l-0.001,0z" class="cls-1"/>
   <path id="svg_38" stroke-width="0px" fill="#622599" d="m949.0575,190.09251c-3.839,0 -7.678,-1.465 -10.606,-4.394c-5.858,-5.857 -5.858,-15.355 0,-21.213l84.293,-84.293c5.857,-5.857 15.355,-5.857 21.213,0c5.858,5.857 5.858,15.355 0,21.213l-84.293,84.293c-2.929,2.929 -6.768,4.394 -10.606,4.394l-0.001,0z" class="cls-1"/>
  </g>
  <g id="svg_39">
   <path id="svg_40" stroke-width="0px" fill="#622599" d="m1089.9165,114.29351c-3.839,0 -7.678,-1.464 -10.606,-4.394l-84.292,-84.293c-5.858,-5.857 -5.858,-15.355 0,-21.213c5.857,-5.857 15.355,-5.859 21.213,0l84.292,84.293c5.858,5.857 5.858,15.355 0,21.213c-2.929,2.929 -6.768,4.394 -10.606,4.394l-0.001,0z" class="cls-1"/>
   <path id="svg_41" stroke-width="0px" fill="#622599" d="m1025.2595,190.09251c-3.839,0 -7.678,-1.465 -10.606,-4.394c-5.858,-5.857 -5.858,-15.355 0,-21.213l84.293,-84.293c5.857,-5.857 15.355,-5.857 21.213,0c5.858,5.857 5.858,15.355 0,21.213l-84.293,84.293c-2.929,2.929 -6.768,4.394 -10.606,4.394l-0.001,0z" class="cls-1"/>
  </g>
  <g id="svg_42">
   <path id="svg_43" stroke-width="0px" fill="#622599" d="m1166.1185,114.29351c-3.839,0 -7.678,-1.464 -10.606,-4.394l-84.292,-84.293c-5.858,-5.857 -5.858,-15.355 0,-21.213c5.857,-5.857 15.355,-5.859 21.213,0l84.292,84.293c5.858,5.857 5.858,15.355 0,21.213c-2.929,2.929 -6.768,4.394 -10.606,4.394l-0.001,0z" class="cls-1"/>
   <path id="svg_44" stroke-width="0px" fill="#622599" d="m1101.4615,190.09251c-3.839,0 -7.678,-1.465 -10.606,-4.394c-5.858,-5.857 -5.858,-15.355 0,-21.213l84.293,-84.293c5.857,-5.857 15.355,-5.857 21.213,0c5.858,5.857 5.858,15.355 0,21.213l-84.293,84.293c-2.929,2.929 -6.768,4.394 -10.606,4.394l-0.001,0z" class="cls-1"/>
  </g>
  <g id="svg_45">
   <path id="svg_46" stroke-width="0px" fill="#622599" d="m1242.3205,114.29351c-3.839,0 -7.678,-1.464 -10.606,-4.394l-84.292,-84.293c-5.858,-5.857 -5.858,-15.355 0,-21.213c5.857,-5.857 15.355,-5.859 21.213,0l84.292,84.293c5.858,5.857 5.858,15.355 0,21.213c-2.929,2.929 -6.768,4.394 -10.606,4.394l-0.001,0z" class="cls-1"/>
   <path id="svg_47" stroke-width="0px" fill="#622599" d="m1177.6635,190.09251c-3.839,0 -7.678,-1.465 -10.606,-4.394c-5.858,-5.857 -5.858,-15.355 0,-21.213l84.293,-84.293c5.857,-5.857 15.355,-5.857 21.213,0c5.858,5.857 5.858,15.355 0,21.213l-84.293,84.293c-2.929,2.929 -6.768,4.394 -10.606,4.394l-0.001,0z" class="cls-1"/>
  </g>
  <g id="svg_48">
   <path id="svg_49" stroke-width="0px" fill="#622599" d="m1318.5225,114.29351c-3.839,0 -7.678,-1.465 -10.606,-4.394l-84.293,-84.293c-5.858,-5.857 -5.858,-15.355 0,-21.213c5.857,-5.857 15.355,-5.857 21.213,0l84.293,84.293c5.858,5.857 5.858,15.355 0,21.213c-2.929,2.929 -6.768,4.394 -10.606,4.394l-0.001,0z" class="cls-1"/>
   <path id="svg_50" stroke-width="0px" fill="#622599" d="m1253.8655,190.09251c-3.839,0 -7.678,-1.465 -10.606,-4.394c-5.858,-5.857 -5.858,-15.355 0,-21.213l84.292,-84.293c5.857,-5.857 15.355,-5.857 21.213,0c5.858,5.857 5.858,15.355 0,21.213l-84.292,84.293c-2.929,2.929 -6.768,4.394 -10.606,4.394l-0.001,0z" class="cls-1"/>
  </g>
  <g id="svg_51">
   <path id="svg_52" stroke-width="0px" fill="#622599" d="m1394.7255,114.29351c-3.839,0 -7.678,-1.465 -10.606,-4.394l-84.293,-84.293c-5.858,-5.857 -5.858,-15.355 0,-21.213c5.857,-5.857 15.355,-5.857 21.213,0l84.293,84.293c5.858,5.857 5.858,15.355 0,21.213c-2.929,2.929 -6.768,4.394 -10.606,4.394l-0.001,0z" class="cls-1"/>
   <path id="svg_53" stroke-width="0px" fill="#622599" d="m1330.0665,190.09251c-3.839,0 -7.678,-1.465 -10.606,-4.394c-5.858,-5.857 -5.858,-15.355 0,-21.213l84.293,-84.293c5.857,-5.857 15.355,-5.857 21.213,0c5.858,5.857 5.858,15.355 0,21.213l-84.293,84.293c-2.929,2.929 -6.768,4.394 -10.606,4.394l-0.001,0z" class="cls-1"/>
  </g>
  <g id="svg_54">
   <path id="svg_55" stroke-width="0px" fill="#622599" d="m1470.9265,114.29351c-3.839,0 -7.678,-1.464 -10.606,-4.394l-84.292,-84.293c-5.858,-5.857 -5.858,-15.355 0,-21.213c5.857,-5.857 15.355,-5.859 21.213,0l84.292,84.293c5.858,5.857 5.858,15.355 0,21.213c-2.929,2.929 -6.768,4.394 -10.606,4.394l-0.001,0z" class="cls-1"/>
   <path id="svg_56" stroke-width="0px" fill="#622599" d="m1406.2695,190.09251c-3.839,0 -7.678,-1.465 -10.606,-4.394c-5.858,-5.857 -5.858,-15.355 0,-21.213l84.293,-84.293c5.857,-5.857 15.355,-5.857 21.213,0c5.858,5.857 5.858,15.355 0,21.213l-84.293,84.293c-2.929,2.929 -6.768,4.394 -10.606,4.394l-0.001,0z" class="cls-1"/>
  </g>
  <g id="svg_57">
   <path id="svg_58" stroke-width="0px" fill="#622599" d="m1547.1285,114.29351c-3.839,0 -7.678,-1.464 -10.606,-4.394l-84.292,-84.293c-5.858,-5.857 -5.858,-15.355 0,-21.213c5.857,-5.857 15.355,-5.859 21.213,0l84.292,84.293c5.858,5.857 5.858,15.355 0,21.213c-2.929,2.929 -6.768,4.394 -10.606,4.394l-0.001,0z" class="cls-1"/>
   <path id="svg_59" stroke-width="0px" fill="#622599" d="m1482.4715,190.09251c-3.839,0 -7.678,-1.465 -10.606,-4.394c-5.858,-5.857 -5.858,-15.355 0,-21.213l84.293,-84.293c5.857,-5.857 15.355,-5.857 21.213,0c5.858,5.857 5.858,15.355 0,21.213l-84.293,84.293c-2.929,2.929 -6.768,4.394 -10.606,4.394l-0.001,0z" class="cls-1"/>
  </g>
  <g id="svg_60">
   <path id="svg_61" stroke-width="0px" fill="#622599" d="m1623.3305,114.29351c-3.839,0 -7.678,-1.464 -10.606,-4.394l-84.292,-84.293c-5.858,-5.857 -5.858,-15.355 0,-21.213c5.857,-5.857 15.355,-5.859 21.213,0l84.292,84.293c5.858,5.857 5.858,15.355 0,21.213c-2.929,2.929 -6.768,4.394 -10.606,4.394l-0.001,0z" class="cls-1"/>
   <path id="svg_62" stroke-width="0px" fill="#622599" d="m1558.6735,190.09251c-3.839,0 -7.678,-1.465 -10.606,-4.394c-5.858,-5.857 -5.858,-15.355 0,-21.213l84.293,-84.293c5.857,-5.857 15.355,-5.857 21.213,0c5.858,5.857 5.858,15.355 0,21.213l-84.293,84.293c-2.929,2.929 -6.768,4.394 -10.606,4.394l-0.001,0z" class="cls-1"/>
  </g>
  <g id="svg_63">
   <path id="svg_64" stroke-width="0px" fill="#622599" d="m1699.5325,114.29351c-3.839,0 -7.678,-1.465 -10.606,-4.394l-84.293,-84.293c-5.858,-5.857 -5.858,-15.355 0,-21.213c5.857,-5.857 15.355,-5.857 21.213,0l84.293,84.293c5.858,5.857 5.858,15.355 0,21.213c-2.929,2.929 -6.768,4.394 -10.606,4.394l-0.001,0z" class="cls-1"/>
   <path id="svg_65" stroke-width="0px" fill="#622599" d="m1634.8755,190.09251c-3.839,0 -7.678,-1.465 -10.606,-4.394c-5.858,-5.857 -5.858,-15.355 0,-21.213l84.292,-84.293c5.857,-5.857 15.355,-5.857 21.213,0c5.858,5.857 5.858,15.355 0,21.213l-84.292,84.293c-2.929,2.929 -6.768,4.394 -10.606,4.394l-0.001,0z" class="cls-1"/>
  </g>
 </g>
</svg>